<svg id="Layer_3" data-name="Layer 3" xmlns="http://www.w3.org/2000/svg" width="198" height="156" viewBox="0 0 198 156">
  <defs>
    <style nonce="">
      .cls-1, .cls-2 {
        fill: #e7e9f7;
      }

      .cls-12, .cls-2, .cls-4, .cls-6, .cls-9 {
        stroke: #3c6df0;
      }

      .cls-12, .cls-2, .cls-4, .cls-6, .cls-8, .cls-9 {
        stroke-linecap: round;
        stroke-linejoin: round;
      }

      .cls-2, .cls-4, .cls-6 {
        stroke-width: 4px;
      }

      .cls-3 {
        fill: #cbd3f5;
      }

      .cls-12, .cls-4, .cls-8 {
        fill: none;
      }

      .cls-5, .cls-6, .cls-9 {
        fill: #fff;
      }

      .cls-7 {
        fill: #b0bef3;
      }

      .cls-8 {
        stroke: #b0bef3;
      }

      .cls-12, .cls-8, .cls-9 {
        stroke-width: 2px;
      }

      .cls-10 {
        fill: #d3dff9;
      }

      .cls-11 {
        fill: #a8c0f3;
      }
    </style>
  </defs>
  <title>table_empty_states_v2</title>
  <circle class="cls-1" cx="91.55" cy="86.56" r="66.12"/>
  <path class="cls-2" d="M82.84,24.2a17.23,17.23,0,0,1,33,0"/>
  <polygon class="cls-3" points="117.12 98.04 82 92.14 82 82.48 117.12 88.37 117.12 98.04"/>
  <polygon class="cls-3" points="117.12 78.96 82 73.07 82 63.4 117.12 69.3 117.12 78.96"/>
  <polygon class="cls-3" points="115.19 59.89 83.88 54.63 84.5 49.84 113.66 51.25 115.19 59.89"/>
  <polygon class="cls-3" points="117.12 117.11 82 111.22 82 101.55 117.12 107.45 117.12 117.11"/>
  <polygon class="cls-4" points="114.7 53 84 53 80 108.33 118.7 108.33 114.7 53"/>
  <rect class="cls-2" x="80" y="46.69" width="38.7" height="6.31"/>
  <rect class="cls-2" x="80" y="23.11" width="38.7" height="6.31"/>
  <polyline class="cls-5" points="83.06 33.73 83.06 29.42 115.64 29.42 115.64 42.38 115.64 46.69 83.06 46.69 83.06 43.13"/>
  <polyline class="cls-6" points="115.64 43.38 115.64 46.69 83.06 46.69 83.06 43.13"/>
  <polyline class="cls-6" points="83.06 33.73 83.06 29.42 115.64 29.42 115.64 36.75"/>
  <circle class="cls-2" cx="99.35" cy="7.56" r="4.33"/>
  <rect class="cls-2" x="74.24" y="108.33" width="50.61" height="17.04" rx="4" ry="4"/>
  <ellipse class="cls-5" cx="89.93" cy="150.8" rx="26.18" ry="10.81"/>
  <polygon class="cls-7" points="67.33 123.67 53.69 132.13 38 134.67 23.27 146.97 28.68 146.58 46.3 150.15 57.3 150.75 82.84 143.66 107.49 148.37 116.84 148.49 138.62 142.68 147.67 140.52 155.46 140.97 162.41 143.58 166.16 122.27 161.49 111.44 147.67 100 132 105 120 114.33 102.67 115.67 87.33 121.33 67.33 123.67"/>
  <path class="cls-4" d="M166.71,146.76c.41.36.8.74,1.17,1.13"/>
  <path class="cls-4" d="M160.68,142.64a9.89,9.89,0,0,1,1.73.94"/>
  <path class="cls-4" d="M101,146.87a44.86,44.86,0,0,0,10.86,1.93c12.18.34,22.76-5.85,34.45-8.06a23.25,23.25,0,0,1,9.2.22"/>
  <path class="cls-8" d="M136.75,148.19c3.45-1.12,15.75-4.78,18.25-.89"/>
  <path class="cls-4" d="M24.34,146.87l.74,0c8.27-.28,18.46,3.18,24.51,3.82,13.31,1.41,24.59-8.37,38.06-6.93A45.89,45.89,0,0,1,94.18,145"/>
  <path class="cls-4" d="M18.48,148.2,19,148"/>
  <path class="cls-4" d="M12.31,153.38a20.12,20.12,0,0,1,1.75-2.32"/>
  <circle class="cls-9" cx="99.35" cy="71.11" r="4.33"/>
  <path class="cls-10" d="M39,94.06H33.23a3.86,3.86,0,0,1-3.86-3.87c0-1.65,1.26-3.57,3-3.72a22.82,22.82,0,0,1,2.34,0h3.62a3.87,3.87,0,0,0,0-7.73H4.58a3.87,3.87,0,0,0,0,7.73H13.3c2.47,0,7.39,0,7.41,0a3.84,3.84,0,0,1,0,7.43,3.76,3.76,0,0,1-1,.14h-.78a3.86,3.86,0,1,0,0,7.72H39a3.86,3.86,0,1,0,0-7.72Z"/>
  <path class="cls-10" d="M172.87,67.32h-1a3.85,3.85,0,0,0-3.77,3.85h0A3.86,3.86,0,0,0,172,75h21.36a3.86,3.86,0,0,1,3.86,3.86h0a3.86,3.86,0,0,1-3.86,3.86h-45.9a3.86,3.86,0,0,1-3.86-3.86h0A3.86,3.86,0,0,1,147.43,75h2.86a3.85,3.85,0,0,0,3.85-3.86h0a3.85,3.85,0,0,0-3.76-3.85H139a3.86,3.86,0,0,1-3.86-3.86h0A3.86,3.86,0,0,1,139,59.6h33.77a3.86,3.86,0,0,1,3.86,3.86h0a3.86,3.86,0,0,1-3.76,3.85"/>
  <path class="cls-11" d="M188.49,37.59H165.24a3.86,3.86,0,0,1-3.86-3.86h0a3.86,3.86,0,0,1,3.86-3.86h11.21A3.86,3.86,0,0,0,180.31,26h0a3.86,3.86,0,0,0-3.86-3.86H146.17A3.86,3.86,0,0,0,142.31,26h0a3.86,3.86,0,0,0,3.86,3.86h1.37a3.86,3.86,0,0,1,3.86,3.86h0a3.85,3.85,0,0,1-3.85,3.86h-1.38a3.87,3.87,0,0,0-3.86,3.86h0a3.86,3.86,0,0,0,3.86,3.86h42.32a3.86,3.86,0,0,0,3.86-3.86h0A3.86,3.86,0,0,0,188.49,37.59Z"/>
  <path class="cls-8" d="M74.91,151.68c1-.25,9.63-6.38,19.27-.16"/>
  <path class="cls-12" d="M86.5,131c.5-.33,8.25-3,8.25-3l13,3.86"/>
  <polyline class="cls-12" points="133.5 125.23 139.96 121.44 150.25 122.09"/>
  <polyline class="cls-12" points="161.49 111.44 147.67 100 143.95 101.19"/>
  <polyline class="cls-12" points="40.88 145.26 48 140.38 54.88 143.58"/>
  <path class="cls-12" d="M132,105l-12,9.33-9.35.72-8,.62-15.34,5.66-7.33.76-12.67,1.58s-6.48,4-7,4.33"/>
  <polyline class="cls-12" points="44.42 133.63 38 134.67 33.39 138.52"/>
  <path class="cls-9" d="M89.06,35.89a4.33,4.33,0,1,1,.7,5.23"/>
  <path class="cls-7" d="M53.9,32.2A66.53,66.53,0,0,0,39.27,46.09l53.52-8Z"/>
</svg>
