<?xml version="1.0" encoding="UTF-8"?>
<svg width="20px" height="20px" viewBox="0 0 20 20" version="1.1" xmlns="http://www.w3.org/2000/svg" xmlns:xlink="http://www.w3.org/1999/xlink">
    <!-- Generator: Sketch 52.3 (67297) - http://www.bohemiancoding.com/sketch -->
    <title>Scale White</title>
    <desc>Created with Sketch.</desc>
    <g id="Scale-White" stroke="none" stroke-width="1" fill="none" fill-rule="evenodd">
        <path d="M8.125,10.625 C8.8125,10.625 9.375,11.1875 9.375,11.875 L9.375,15.625 C9.375,16.3125 8.8125,16.875 8.125,16.875 L4.375,16.875 C3.6875,16.875 3.125,16.3125 3.125,15.625 L3.125,11.875 C3.125,11.1875 3.6875,10.625 4.375,10.625 L8.125,10.625 Z M4.375,15.625 L8.125,15.625 L8.125,11.875 L4.375,11.875 L4.375,15.625 Z" id="Combined-Shape" fill="#FFFFFF" fill-rule="nonzero"></path>
        <path d="M11.875,13.125 L11.875,14.375 L15.625,14.375 C16.3125,14.375 16.875,13.8125 16.875,13.125 L16.875,4.375 C16.875,3.6875 16.3125,3.125 15.625,3.125 L6.875,3.125 C6.1875,3.125 5.625,3.6875 5.625,4.375 L5.625,8.125 L6.875,8.125 L6.875,4.375 L15.625,4.375 L15.625,13.125" id="Shape" fill="#FFFFFF" fill-rule="nonzero"></path>
    </g>
</svg>