<?xml version="1.0" encoding="UTF-8"?>
<svg width="20px" height="20px" viewBox="0 0 20 20" version="1.1" xmlns="http://www.w3.org/2000/svg" xmlns:xlink="http://www.w3.org/1999/xlink">
    <!-- Generator: Sketch 52.3 (67297) - http://www.bohemiancoding.com/sketch -->
    <title>Key White</title>
    <desc>Created with Sketch.</desc>
    <g id="Key-White" stroke="none" stroke-width="1" fill="none" fill-rule="evenodd">
        <path d="M12.8661875,5.3661875 C12.508685,5.72368311 12.4017359,6.26133228 12.5952108,6.72842821 C12.7886856,7.19552414 13.2444825,7.50007945 13.7500625,7.50007945 C14.2556425,7.50007945 14.7114394,7.19552414 14.9049142,6.72842821 C15.0983891,6.26133228 14.99144,5.72368311 14.6339375,5.3661875 C14.1455131,4.87869819 13.3546119,4.87869819 12.8661875,5.3661875 Z" id="Shape" fill="#FFFFFF" fill-rule="nonzero"></path>
        <path d="M13.125,1.25 C14.9466647,1.25272996 16.6559423,2.13106613 17.71875,3.6105625 C18.4987868,4.68930663 18.8607829,6.014501 18.7375,7.34 C18.5951062,9.0339774 17.6950943,10.5729737 16.2885365,11.5276624 C14.8819787,12.4823511 13.1194235,12.7505488 11.4925625,12.2574375 L5,18.75 L1.25,18.75 L1.25,15 L7.7425625,8.5074375 C7.22513606,6.80307845 7.54570349,4.95435812 8.60674005,3.52370397 C9.66777661,2.09304982 11.3438291,1.24961734 13.125,1.25 Z M13.125,11.25 C14.6186667,11.2466515 16.0094235,10.488525 16.8215625,9.2349375 C17.3070675,8.49504321 17.5462945,7.62062648 17.5050625,6.736625 C17.4540935,5.23236495 16.6352508,3.85934029 15.3359822,3.09953956 C14.0367136,2.33973883 12.4385686,2.29933066 11.1025625,2.9925 C9.21768111,4.01169921 8.32470132,6.22783465 8.976375,8.269125 L9.1559375,8.8618125 L8.626375,9.3913125 L2.5,15.51775 L2.5,17.5 L4.48225,17.5 L5.86175,16.1205 L5,15.2588125 L5.8838125,14.375 L6.7455625,15.2366875 L7.73675,14.2455 L6.875,13.3838125 L7.7588125,12.5 L8.6205625,13.3614375 L10.6086875,11.3733125 L11.13825,10.84375 L11.855,11.061125 C12.2667481,11.1861663 12.6946841,11.2498091 13.125,11.25 Z" id="Combined-Shape" fill="#FFFFFF" fill-rule="nonzero"></path>
    </g>
</svg>