<svg id="Layer_1" data-name="Layer 1" xmlns="http://www.w3.org/2000/svg" xmlns:xlink="http://www.w3.org/1999/xlink" width="16" height="16" viewBox="0 0 16 16">
  <defs>
    <style>
      .cls-1 {
        fill: #fff;
      }

      .cls-2 {
        clip-path: url(#clip-path);
      }

      .cls-3 {
        clip-path: url(#clip-path-2);
      }
    </style>
    <clipPath id="clip-path">
      <path class="cls-1" d="M4,7.5H9v1H4Zm0-3h8v1H4Zm4.87,10L8,14l2-3.5h3a1,1,0,0,0,1-1v-6a1,1,0,0,0-1-1H3a1,1,0,0,0-1,1v6a1,1,0,0,0,1,1H7.5v1H3a2,2,0,0,1-2-2v-6a2,2,0,0,1,2-2H13a2,2,0,0,1,2,2v6a2,2,0,0,1-2,2H10.58Z"/>
    </clipPath>
    <clipPath id="clip-path-2">
      <rect class="cls-1" x="10" y="-16.5" width="16" height="16"/>
    </clipPath>
  </defs>
  <title>chat_16</title>
  <g>
    <path class="cls-1" d="M4,7.5H9v1H4Zm0-3h8v1H4Zm4.87,10L8,14l2-3.5h3a1,1,0,0,0,1-1v-6a1,1,0,0,0-1-1H3a1,1,0,0,0-1,1v6a1,1,0,0,0,1,1H7.5v1H3a2,2,0,0,1-2-2v-6a2,2,0,0,1,2-2H13a2,2,0,0,1,2,2v6a2,2,0,0,1-2,2H10.58Z"/>
    <g class="cls-2">
      <g>
        <rect class="cls-1" x="10" y="-16.5" width="16" height="16"/>
        <g class="cls-3">
          <rect class="cls-1" x="6" y="-19.5" width="44" height="43"/>
        </g>
      </g>
    </g>
  </g>
</svg>